HIERARCHY
ROOT Hips
{
	OFFSET 0.000000 0.000000 0.000000
	CHANNELS 6 Xposition Yposition Zposition Zrotation Yrotation Xrotation 
	JOINT LHipJoint
	{
		OFFSET 0.000000 0.000000 0.000000
		CHANNELS 3 Zrotation Yrotation Xrotation
		JOINT LeftUpLeg
		{
			OFFSET 1.363060 -1.794630 0.839290
			CHANNELS 3 Zrotation Yrotation Xrotation
			JOINT LeftLeg
			{
				OFFSET 2.448110 -6.726130 0.000000
				CHANNELS 3 Zrotation Yrotation Xrotation
				JOINT LeftFoot
				{
					OFFSET 2.562200 -7.039590 0.000000
					CHANNELS 3 Zrotation Yrotation Xrotation
					JOINT LeftToeBase
					{
						OFFSET 0.157640 -0.433110 2.322550
						CHANNELS 3 Zrotation Yrotation Xrotation
						End Site
						{
							OFFSET 0.000000 0.000000 0.000000
						}
					}
				}
			}
		}
	}
	JOINT RHipJoint
	{
		OFFSET 0.000000 0.000000 0.000000
		CHANNELS 3 Zrotation Yrotation Xrotation
		JOINT RightUpLeg
		{
			OFFSET -1.305520 -1.794630 0.839290
			CHANNELS 3 Zrotation Yrotation Xrotation
			JOINT RightLeg
			{
				OFFSET -2.542530 -6.985550 0.000000
				CHANNELS 3 Zrotation Yrotation Xrotation
				JOINT RightFoot
				{
					OFFSET -2.568260 -7.056230 0.000000
					CHANNELS 3 Zrotation Yrotation Xrotation
					JOINT RightToeBase
					{
						OFFSET -0.164730 -0.452590 2.363150
						CHANNELS 3 Zrotation Yrotation Xrotation
						End Site
						{
							OFFSET 0.000000 0.000000 0.000000
						}
					}
				}
			}
		}
	}
	JOINT LowerBack
	{
		OFFSET 0.000000 0.000000 0.000000
		CHANNELS 3 Zrotation Yrotation Xrotation
		JOINT Spine
		{
			OFFSET 0.028270 2.035590 -0.193380
			CHANNELS 3 Zrotation Yrotation Xrotation
			JOINT Spine1
			{
				OFFSET 0.056720 2.048850 -0.042750
				CHANNELS 3 Zrotation Yrotation Xrotation
				JOINT Neck
				{
					OFFSET 0.000000 0.000000 0.000000
					CHANNELS 3 Zrotation Yrotation Xrotation
					JOINT Neck1
					{
						OFFSET -0.054170 1.746240 0.172020
						CHANNELS 3 Zrotation Yrotation Xrotation
						JOINT Head
						{
							OFFSET 0.104070 1.761360 -0.123970
							CHANNELS 3 Zrotation Yrotation Xrotation
							End Site
							{
								OFFSET 0.000000 0.000000 0.000000
							}
						}
					}
				}
				JOINT LeftShoulder
				{
					OFFSET 0.000000 0.000000 0.000000
					CHANNELS 3 Zrotation Yrotation Xrotation
					JOINT LeftArm
					{
						OFFSET 3.362410 1.200890 -0.311210
						CHANNELS 3 Zrotation Yrotation Xrotation
						JOINT LeftForeArm
						{
							OFFSET 4.983000 -0.000000 -0.000000
							CHANNELS 3 Zrotation Yrotation Xrotation
							JOINT LeftHand
							{
								OFFSET 3.483560 -0.000000 -0.000000
								CHANNELS 3 Zrotation Yrotation Xrotation
								JOINT LeftFingerBase
								{
									OFFSET 0.000000 0.000000 0.000000
									CHANNELS 3 Zrotation Yrotation Xrotation
									JOINT LeftHandIndex1
									{
										OFFSET 0.715260 -0.000000 -0.000000
										CHANNELS 3 Zrotation Yrotation Xrotation
										End Site
										{
											OFFSET 0.000000 0.000000 0.000000
										}
									}
								}
								JOINT LThumb
								{
									OFFSET 0.000000 0.000000 0.000000
									CHANNELS 3 Zrotation Yrotation Xrotation
									End Site
									{
										OFFSET 0.000000 0.000000 0.000000
									}
								}
							}
						}
					}
				}
				JOINT RightShoulder
				{
					OFFSET 0.000000 0.000000 0.000000
					CHANNELS 3 Zrotation Yrotation Xrotation
					JOINT RightArm
					{
						OFFSET -3.136600 1.374050 -0.404650
						CHANNELS 3 Zrotation Yrotation Xrotation
						JOINT RightForeArm
						{
							OFFSET -5.241900 -0.000000 -0.000000
							CHANNELS 3 Zrotation Yrotation Xrotation
							JOINT RightHand
							{
								OFFSET -3.444170 -0.000000 -0.000000
								CHANNELS 3 Zrotation Yrotation Xrotation
								JOINT RightFingerBase
								{
									OFFSET 0.000000 0.000000 0.000000
									CHANNELS 3 Zrotation Yrotation Xrotation
									JOINT RightHandIndex1
									{
										OFFSET -0.622530 -0.000000 -0.000000
										CHANNELS 3 Zrotation Yrotation Xrotation
										End Site
										{
											OFFSET 0.000000 0.000000 0.000000
										}
									}
								}
								JOINT RThumb
								{
									OFFSET 0.000000 0.000000 0.000000
									CHANNELS 3 Zrotation Yrotation Xrotation
									End Site
									{
										OFFSET 0.000000 0.000000 0.000000
									}
								}
							}
						}
					}
				}
			}
		}
	}
}
MOTION
Frames: 8
Frame Time: 0.008333
0.561593 15.303754 23.279279 173.703309 -18.869185 -168.083455 -0.999704 -10.118049 -11.295139 7.036614 9.027198 -7.858223 5.980026 18.876765 32.306451 -3.454406 15.587368 10.184173 -3.969256 21.769397 4.507631 0.814064 11.871736 -14.076674 -0.122049 -2.927947 0.470182 -2.849626 -11.466577 50.167891 -4.384343 2.465673 -5.639320 -7.905009 -8.087003 -40.806727 -0.061952 -1.265221 28.038148 1.052050 -0.476328 -10.369899 -2.002197 -0.388996 -5.703619 -4.138243 0.533434 -9.699103 -2.107493 0.296850 9.091332 5.342761 -10.106785 15.141857 14.590796 -0.791026 -1.138028 -80.171114 -5.570728 24.863448 146.759514 -62.142765 -139.854047 -4.190122 16.877213 -2.968587 -0.000001 -0.000002 -0.000000 -0.000000 0.000000 -0.000000 0.000000 0.000000 0.000000 -13.245000 9.079609 0.604336 76.796139 17.570631 24.841081 -42.791555 79.489539 -28.356712 14.010429 -1.926984 -0.298260 0.000000 0.000002 -0.000000 0.000000 -0.000000 -0.000000 -0.000000 0.000000 -0.000000 
0.759147 15.252402 23.234685 174.350767 -18.315424 -168.479431 -1.343734 -9.491399 -11.438295 8.560709 5.634143 -8.366170 7.629696 20.411492 35.063350 -4.982853 15.136009 11.800051 -4.101861 21.981617 4.042425 0.847920 11.861684 -13.964420 0.740705 0.464618 2.072198 -1.281793 -14.802663 48.586516 -7.013607 3.393691 -7.493525 -7.339724 -8.632504 -40.387939 -0.095075 -1.604252 28.118478 1.238370 -0.899763 -10.318233 -2.105441 -0.818226 -5.328914 -3.583623 0.564032 -10.027180 -1.745378 0.234918 8.840927 5.082463 -9.492835 14.972831 15.155988 -0.347335 -1.108061 -80.432280 -3.777735 24.280612 146.819716 -61.648976 -138.994577 -3.478589 15.787789 -2.678992 -0.000001 -0.000002 -0.000000 -0.000000 -0.000000 0.000000 -0.000000 -0.000000 -0.000000 -12.690524 9.113289 0.824199 77.036124 19.794376 25.524126 -37.557065 78.790400 -23.382501 12.170762 -1.049679 -0.074349 0.000000 0.000002 -0.000000 -0.000000 -0.000000 0.000000 0.000000 0.000000 -0.000000 
0.933791 15.180631 23.193544 174.749912 -17.691140 -169.018719 -1.322912 -9.055623 -11.510213 8.946254 2.354044 -8.951182 8.480199 20.471301 38.733532 -4.702171 14.734841 11.699673 -4.137943 21.431649 3.319812 0.617550 11.736476 -13.873171 1.501309 -2.208468 1.188357 -0.734425 -12.783360 49.587635 -9.090888 3.542341 -9.303670 -7.881227 -8.356030 -41.398830 -0.075500 -1.831022 28.175715 1.404101 -1.576999 -10.106090 -1.505350 -1.514062 -4.829113 -3.852176 0.770431 -10.275371 -1.475904 0.447810 8.490015 5.626670 -8.773403 14.255464 15.031328 0.690487 -1.077132 -80.934154 -2.318292 22.853873 147.419306 -62.200816 -140.346456 -1.746280 15.763143 -2.454645 -0.000001 -0.000002 -0.000000 -0.000000 0.000000 0.000000 0.000000 -0.000000 0.000000 -13.211665 9.814876 1.011185 77.365825 22.036324 25.315497 -30.977251 78.425112 -18.075135 11.967545 -0.759900 -0.003416 0.000000 0.000002 -0.000000 0.000000 -0.000000 -0.000000 -0.000000 -0.000000 0.000000 
1.110431 15.115465 23.155706 175.024056 -17.248637 -169.494394 -1.319080 -8.652007 -11.521535 9.124375 -1.710327 -9.572547 8.793987 20.771241 42.500830 -4.084405 14.455045 10.971820 -3.494537 17.926594 3.044053 0.674744 11.686160 -13.643700 1.851522 -2.781919 0.740827 0.342130 -13.070281 50.159927 -12.594970 2.433244 -10.999755 -8.022593 -8.226510 -41.514592 -0.070186 -2.002965 28.334006 1.488537 -1.867844 -9.937044 -0.508451 -1.860349 -5.135502 -4.654746 1.008719 -9.709876 -1.334373 0.741254 8.222928 6.662431 -8.472928 12.964018 14.367254 0.657500 -0.801609 -81.450507 -0.895345 21.666865 147.165682 -62.981766 -141.372980 -1.011052 15.971666 -2.393505 -0.000001 -0.000002 -0.000000 0.000000 0.000000 0.000000 0.000000 0.000000 -0.000000 -14.036471 10.228088 1.425132 77.722230 23.451180 25.133722 -26.345949 77.771946 -15.372362 10.827218 -1.848949 -0.273298 0.000000 0.000002 -0.000000 -0.000000 0.000000 -0.000000 -0.000000 -0.000000 -0.000000 
1.277715 15.036336 23.121321 175.270699 -16.473225 -170.027992 -1.057508 -8.433406 -11.341741 9.185853 -4.964245 -10.325129 8.467434 20.799587 46.257599 -2.955533 14.363883 10.152193 -3.079331 15.005619 1.863361 0.432153 11.660427 -13.664716 2.500711 -3.814263 0.377305 0.637619 -13.257219 50.820387 -15.082235 2.167546 -12.535256 -7.538942 -8.776527 -41.385810 -0.155707 -2.192514 28.424907 1.482518 -1.782590 -9.655360 -1.988487 -1.728399 -3.358436 -3.190116 0.836867 -11.033712 -1.179378 0.379174 7.938954 5.369913 -8.168109 13.195745 16.000282 1.123313 -0.619357 -81.928046 -1.578530 21.183666 146.275613 -63.567027 -141.191556 0.614824 15.863387 -2.170238 -0.000001 -0.000002 -0.000000 -0.000000 0.000000 0.000000 -0.000000 0.000000 -0.000000 -12.827629 8.892386 1.421425 78.130660 26.308761 25.334911 -22.556954 77.058248 -11.456372 10.304337 -0.507386 0.040951 0.000000 0.000002 -0.000000 0.000000 -0.000000 -0.000000 -0.000000 -0.000000 0.000000 
1.456926 14.976637 23.094294 175.397733 -15.540973 -170.262006 -0.861428 -8.456481 -11.068645 9.382044 -6.865623 -11.629182 7.449638 19.927524 49.752786 -1.232363 14.620963 9.845775 -2.408843 13.658715 5.033460 0.489765 11.936250 -13.774521 2.603077 -5.110336 -0.178574 0.472724 -13.570444 51.420316 -17.718353 2.474472 -13.774927 -6.739904 -9.560074 -40.840414 -0.561536 -2.400549 28.560350 1.539177 -1.729426 -9.523733 -1.778438 -1.641990 -2.977867 -3.277995 0.903116 -11.191954 -1.044637 0.429089 7.666633 5.688981 -8.111139 13.357461 15.960011 1.359375 -0.070306 -82.372313 -1.361737 20.914578 144.654831 -63.953867 -139.706017 1.890429 15.071916 -1.908464 -0.000001 -0.000002 -0.000000 0.000000 0.000000 -0.000000 -0.000000 -0.000000 -0.000000 -12.952716 8.752403 1.420916 78.523185 27.986402 25.462145 -19.779367 76.188505 -9.397060 9.912518 -0.364103 0.069586 0.000000 0.000002 -0.000000 -0.000000 -0.000000 0.000000 0.000000 0.000000 -0.000000 
1.625150 14.932237 23.053153 175.441557 -14.771564 -170.526592 -0.772062 -8.429599 -10.832498 9.506956 -8.643061 -12.858550 5.274687 19.368358 52.829809 1.412882 16.011086 9.050265 -2.092230 13.497825 7.413709 0.773143 11.936366 -13.693292 2.653854 -6.447560 -1.096660 -0.893911 -14.308745 52.214569 -18.070193 3.827697 -14.830340 -6.024641 -10.331664 -40.520175 -0.869342 -2.429949 28.656544 1.538607 -1.460442 -9.406243 -1.791544 -1.400840 -2.790270 -3.253897 0.953270 -11.087425 -0.899100 0.427623 7.376201 5.765088 -8.171137 13.295008 15.870254 1.181072 0.141614 -82.759909 -1.556174 19.467805 144.925447 -65.772903 -143.044421 3.377536 16.589648 -1.903054 -0.000001 -0.000002 -0.000000 -0.000000 -0.000000 -0.000000 -0.000000 0.000000 -0.000000 -12.823171 8.494744 1.650610 78.861397 29.073337 24.867859 -17.248055 75.696916 -6.090307 10.055151 1.526460 0.508694 0.000000 0.000002 -0.000000 -0.000000 -0.000000 -0.000000 -0.000000 -0.000000 0.000000 
1.784730 14.903844 23.020571 175.540136 -13.834605 -170.856065 -0.883303 -8.272489 -10.780072 9.593378 -9.409490 -14.121639 5.063875 19.935670 55.540050 1.594034 16.255824 8.186435 -3.359678 16.952641 2.669467 1.338269 12.010606 -13.590203 2.562271 -7.860166 -2.169531 -2.733051 -14.936790 53.173249 -17.739880 5.501965 -15.582154 -4.893364 -11.469652 -39.747280 -1.172438 -2.553169 28.969754 1.535370 -1.109835 -9.351340 -1.938322 -1.130740 -2.227296 -3.141722 0.973030 -11.441826 -0.722657 0.388146 6.976539 5.413175 -8.260384 13.741819 15.670744 1.716066 0.424559 -83.070821 -2.747615 18.161845 145.174448 -68.016927 -146.270965 3.762819 18.166187 -2.025676 -0.000001 -0.000002 -0.000000 -0.000000 0.000000 -0.000000 -0.000000 0.000000 -0.000000 -12.669703 8.478519 1.648244 79.131686 30.252284 24.044818 -15.396370 75.390325 -4.446776 8.718725 1.751718 0.518332 0.000000 0.000002 -0.000000 0.000000 -0.000000 0.000000 0.000000 -0.000000 0.000000 
